<svg width="24" height="24" viewBox="0 0 24 24" fill="none" xmlns="http://www.w3.org/2000/svg">
<path fill-rule="evenodd" clip-rule="evenodd" d="M19.0082 6.40706C19.3988 6.01653 19.3988 5.38337 19.0082 4.99284C18.6177 4.60232 17.9845 4.60232 17.594 4.99284L12.0007 10.5862L6.4073 4.99284C6.01678 4.60232 5.38361 4.60232 4.99309 4.99284C4.60256 5.38337 4.60256 6.01653 4.99309 6.40706L10.5864 12.0004L4.99309 17.5938C4.60256 17.9843 4.60256 18.6175 4.99309 19.008C5.38361 19.3985 6.01678 19.3985 6.4073 19.008L12.0007 13.4146L17.594 19.008C17.9845 19.3985 18.6177 19.3985 19.0082 19.008C19.3988 18.6175 19.3988 17.9843 19.0082 17.5938L13.4149 12.0004L19.0082 6.40706Z" fill="#1A1926"/>
</svg>
